<?xml version="1.0" encoding="utf-8" standalone="no"?>
<!DOCTYPE svg PUBLIC "-//W3C//DTD SVG 1.1//EN"
  "http://www.w3.org/Graphics/SVG/1.1/DTD/svg11.dtd">
<svg xmlns:xlink="http://www.w3.org/1999/xlink" width="720pt" height="288pt" viewBox="0 0 720 288" xmlns="http://www.w3.org/2000/svg" version="1.1">
 <metadata>
  <rdf:RDF xmlns:dc="http://purl.org/dc/elements/1.1/" xmlns:cc="http://creativecommons.org/ns#" xmlns:rdf="http://www.w3.org/1999/02/22-rdf-syntax-ns#">
   <cc:Work>
    <dc:type rdf:resource="http://purl.org/dc/dcmitype/StillImage"/>
    <dc:date>2022-09-06T21:36:12.469188</dc:date>
    <dc:format>image/svg+xml</dc:format>
    <dc:creator>
     <cc:Agent>
      <dc:title>Matplotlib v3.5.3, https://matplotlib.org/</dc:title>
     </cc:Agent>
    </dc:creator>
   </cc:Work>
  </rdf:RDF>
 </metadata>
 <defs>
  <style type="text/css">*{stroke-linejoin: round; stroke-linecap: butt}</style>
 </defs>
 <g id="figure_1">
  <g id="patch_1">
   <path d="M 0 288 
L 720 288 
L 720 0 
L 0 0 
z
" style="fill: #ffffff"/>
  </g>
  <g id="axes_1">
   <g id="patch_2">
    <path d="M 90 256.32 
L 343.636364 256.32 
L 343.636364 34.56 
L 90 34.56 
z
" style="fill: #ffffff"/>
   </g>
   <g id="line2d_1">
    <path d="M 126.233766 224.64 
L 127.756193 224.598706 
L 129.278621 224.553094 
L 130.801048 224.502716 
L 132.323475 224.447076 
L 133.845902 224.38563 
L 135.368329 224.317777 
L 136.890756 224.242855 
L 138.413183 224.160136 
L 139.935611 224.068818 
L 141.458038 223.968019 
L 142.980465 223.856767 
L 144.502892 223.733997 
L 146.025319 223.598537 
L 147.547746 223.4491 
L 149.070174 223.284276 
L 150.592601 223.102517 
L 152.115028 222.902131 
L 153.637455 222.681262 
L 155.159882 222.437887 
L 156.682309 222.169791 
L 158.204736 221.874566 
L 159.727164 221.549586 
L 161.249591 221.191998 
L 162.772018 220.798707 
L 164.294445 220.366364 
L 165.816872 219.891347 
L 167.339299 219.369758 
L 168.861727 218.797405 
L 170.384154 218.1698 
L 171.906581 217.482152 
L 173.429008 216.729368 
L 174.951435 215.906058 
L 176.473862 215.006546 
L 177.996289 214.02489 
L 179.518717 212.954912 
L 181.041144 211.790231 
L 182.563571 210.52432 
L 184.085998 209.15057 
L 185.608425 207.662366 
L 187.130852 206.053184 
L 188.653279 204.316707 
L 190.175707 202.446949 
L 191.698134 200.438406 
L 193.220561 198.286215 
L 194.742988 195.98633 
L 196.265415 193.535707 
L 197.787842 190.932491 
L 199.31027 188.17621 
L 200.832697 185.267949 
L 202.355124 182.210515 
L 203.877551 179.008572 
L 205.399978 175.668746 
L 206.922405 172.199677 
L 208.444832 168.61202 
L 209.96726 164.918395 
L 211.489687 161.133263 
L 213.012114 157.27274 
L 214.534541 153.354357 
L 216.056968 149.396757 
L 217.579395 145.419353 
L 219.101823 141.441949 
L 220.62425 137.484349 
L 222.146677 133.565966 
L 223.669104 129.705443 
L 225.191531 125.920311 
L 226.713958 122.226686 
L 228.236385 118.639029 
L 229.758813 115.16996 
L 231.28124 111.830134 
L 232.803667 108.628191 
L 234.326094 105.570757 
L 235.848521 102.662496 
L 237.370948 99.906215 
L 238.893376 97.302999 
L 240.415803 94.852376 
L 241.93823 92.552491 
L 243.460657 90.4003 
L 244.983084 88.391757 
L 246.505511 86.521999 
L 248.027938 84.785522 
L 249.550366 83.17634 
L 251.072793 81.688136 
L 252.59522 80.314386 
L 254.117647 79.048475 
L 255.640074 77.883794 
L 257.162501 76.813816 
L 258.684929 75.83216 
L 260.207356 74.932648 
L 261.729783 74.109338 
L 263.25221 73.356554 
L 264.774637 72.668906 
L 266.297064 72.041301 
L 267.819491 71.468948 
L 269.341919 70.947359 
L 270.864346 70.472342 
L 272.386773 70.039999 
L 273.9092 69.646708 
L 275.431627 69.28912 
L 276.954054 68.96414 
L 278.476482 68.668915 
L 279.998909 68.400819 
L 281.521336 68.157444 
L 283.043763 67.936575 
L 284.56619 67.736189 
L 286.088617 67.55443 
L 287.611044 67.389606 
L 289.133472 67.240169 
L 290.655899 67.104709 
L 292.178326 66.981939 
L 293.700753 66.870687 
L 295.22318 66.769888 
L 296.745607 66.67857 
L 298.268034 66.595851 
L 299.790462 66.520929 
L 301.312889 66.453076 
L 302.835316 66.39163 
L 304.357743 66.33599 
L 305.88017 66.285612 
L 307.402597 66.24 
" clip-path="url(#p73a364da29)" style="fill: none; stroke: #000000; stroke-width: 2; stroke-linecap: square"/>
   </g>
   <g id="mpl_toolkits.axisartist.axis_artist_1">
    <g id="patch_3">
     <path d="M 90 225.033713 
L 343.636364 225.033713 
L 355.594982 225.033713 
" style="fill: none; stroke: #000000; stroke-linecap: round"/>
     <path d="M 344.344982 223.158713 
L 355.594982 225.033713 
L 344.344982 226.908713 
L 344.344982 223.158713 
z
" style="stroke: #000000; stroke-linecap: round"/>
    </g>
   </g>
   <g id="mpl_toolkits.axisartist.axis_artist_2">
    <g id="patch_4">
     <path d="M 217.579395 256.32 
L 217.579395 34.56 
L 217.579395 22.601381 
" style="fill: none; stroke: #000000; stroke-linecap: round"/>
     <path d="M 215.704395 33.851381 
L 217.579395 22.601381 
L 219.454395 33.851381 
L 215.704395 33.851381 
z
" style="stroke: #000000; stroke-linecap: round"/>
    </g>
   </g>
  </g>
  <g id="axes_2">
   <g id="patch_5">
    <path d="M 394.363636 256.32 
L 648 256.32 
L 648 34.56 
L 394.363636 34.56 
z
" style="fill: #ffffff"/>
   </g>
   <g id="line2d_2">
    <path d="M 430.597403 224.64 
L 432.11983 224.47491 
L 433.642257 224.292657 
L 435.164684 224.091481 
L 436.687111 223.869444 
L 438.209538 223.624417 
L 439.731966 223.354064 
L 441.254393 223.055815 
L 442.77682 222.726857 
L 444.299247 222.364103 
L 445.821674 221.964172 
L 447.344101 221.523368 
L 448.866528 221.03765 
L 450.388956 220.502608 
L 451.911383 219.913437 
L 453.43381 219.264906 
L 454.956237 218.551335 
L 456.478664 217.766563 
L 458.001091 216.903927 
L 459.523518 215.956235 
L 461.045946 214.91575 
L 462.568373 213.774169 
L 464.0908 212.522618 
L 465.613227 211.15165 
L 467.135654 209.651254 
L 468.658081 208.010881 
L 470.180509 206.219479 
L 471.702936 204.26556 
L 473.225363 202.137279 
L 474.74779 199.822552 
L 476.270217 197.309202 
L 477.792644 194.585149 
L 479.315071 191.638638 
L 480.837499 188.458526 
L 482.359926 185.034614 
L 483.882353 181.358044 
L 485.40478 177.421756 
L 486.927207 173.221001 
L 488.449634 168.753918 
L 489.972062 164.022157 
L 491.494489 159.031549 
L 493.016916 153.792787 
L 494.539343 148.322115 
L 496.06177 142.641984 
L 497.584197 136.781628 
L 499.106624 130.777538 
L 500.629052 124.673759 
L 502.151479 118.521973 
L 503.673906 112.381314 
L 505.196333 106.317854 
L 506.71876 100.40374 
L 508.241187 94.71595 
L 509.763615 89.334669 
L 511.286042 84.341312 
L 512.808469 79.816249 
L 514.330896 75.836326 
L 515.853323 72.472279 
L 517.37575 69.786201 
L 518.898177 67.829178 
L 520.420605 66.63928 
L 521.943032 66.24 
L 523.465459 66.63928 
L 524.987886 67.829178 
L 526.510313 69.786201 
L 528.03274 72.472279 
L 529.555168 75.836326 
L 531.077595 79.816249 
L 532.600022 84.341312 
L 534.122449 89.334669 
L 535.644876 94.71595 
L 537.167303 100.40374 
L 538.68973 106.317854 
L 540.212158 112.381314 
L 541.734585 118.521973 
L 543.257012 124.673759 
L 544.779439 130.777538 
L 546.301866 136.781628 
L 547.824293 142.641984 
L 549.346721 148.322115 
L 550.869148 153.792787 
L 552.391575 159.031549 
L 553.914002 164.022157 
L 555.436429 168.753918 
L 556.958856 173.221001 
L 558.481283 177.421756 
L 560.003711 181.358044 
L 561.526138 185.034614 
L 563.048565 188.458526 
L 564.570992 191.638638 
L 566.093419 194.585149 
L 567.615846 197.309202 
L 569.138273 199.822552 
L 570.660701 202.137279 
L 572.183128 204.26556 
L 573.705555 206.219479 
L 575.227982 208.010881 
L 576.750409 209.651254 
L 578.272836 211.15165 
L 579.795264 212.522618 
L 581.317691 213.774169 
L 582.840118 214.91575 
L 584.362545 215.956235 
L 585.884972 216.903927 
L 587.407399 217.766563 
L 588.929826 218.551335 
L 590.452254 219.264906 
L 591.974681 219.913437 
L 593.497108 220.502608 
L 595.019535 221.03765 
L 596.541962 221.523368 
L 598.064389 221.964172 
L 599.586817 222.364103 
L 601.109244 222.726857 
L 602.631671 223.055815 
L 604.154098 223.354064 
L 605.676525 223.624417 
L 607.198952 223.869444 
L 608.721379 224.091481 
L 610.243807 224.292657 
L 611.766234 224.47491 
" clip-path="url(#p529dac92aa)" style="fill: none; stroke: #000000; stroke-width: 2; stroke-linecap: square"/>
   </g>
   <g id="mpl_toolkits.axisartist.axis_artist_3">
    <g id="patch_6">
     <path d="M 394.363636 226.218352 
L 648 226.218352 
L 659.958619 226.218352 
" style="fill: none; stroke: #000000; stroke-linecap: round"/>
     <path d="M 648.708619 224.343352 
L 659.958619 226.218352 
L 648.708619 228.093352 
L 648.708619 224.343352 
z
" style="stroke: #000000; stroke-linecap: round"/>
    </g>
   </g>
   <g id="mpl_toolkits.axisartist.axis_artist_4">
    <g id="patch_7">
     <path d="M 521.943032 256.32 
L 521.943032 34.56 
L 521.943032 22.601381 
" style="fill: none; stroke: #000000; stroke-linecap: round"/>
     <path d="M 520.068032 33.851381 
L 521.943032 22.601381 
L 523.818032 33.851381 
L 520.068032 33.851381 
z
" style="stroke: #000000; stroke-linecap: round"/>
    </g>
   </g>
  </g>
 </g>
 <defs>
  <clipPath id="p73a364da29">
   <rect x="90" y="34.56" width="253.636364" height="221.76"/>
  </clipPath>
  <clipPath id="p529dac92aa">
   <rect x="394.363636" y="34.56" width="253.636364" height="221.76"/>
  </clipPath>
 </defs>
</svg>
